<?xml version="1.0" encoding="UTF-8" standalone="no"?>
<!DOCTYPE svg PUBLIC "-//W3C//DTD SVG 1.1//EN"
 "http://www.w3.org/Graphics/SVG/1.1/DTD/svg11.dtd">
<!-- Generated by graphviz version 9.0.0 (20230911.1827)
 -->
<!-- Title: G Pages: 1 -->
<svg width="877pt" height="288pt"
 viewBox="0.00 0.00 877.35 288.00" xmlns="http://www.w3.org/2000/svg" xmlns:xlink="http://www.w3.org/1999/xlink">
<g id="graph0" class="graph" transform="scale(1 1) rotate(0) translate(4 284)">
<title>G</title>
<polygon fill="white" stroke="none" points="-4,4 -4,-284 873.35,-284 873.35,4 -4,4"/>
<g id="clust1" class="cluster">
<title>cluster_0</title>
<polygon fill="none" stroke="lightgrey" points="695.6,-130 695.6,-231 869.35,-231 869.35,-130 695.6,-130"/>
<text text-anchor="middle" x="782.48" y="-213.7" font-family="Times,serif" font-size="14.00">Markdown Processing</text>
</g>
<g id="clust2" class="cluster">
<title>cluster_1</title>
<polygon fill="none" stroke="lightgrey" points="104.06,-93 104.06,-272 603.1,-272 603.1,-93 104.06,-93"/>
<text text-anchor="middle" x="353.58" y="-254.7" font-family="Times,serif" font-size="14.00">Plugin Processing</text>
</g>
<g id="clust3" class="cluster">
<title>cluster_2</title>
<polygon fill="none" stroke="lightgrey" points="470.06,-8 470.06,-85 605.17,-85 605.17,-8 470.06,-8"/>
<text text-anchor="middle" x="537.62" y="-67.7" font-family="Times,serif" font-size="14.00">External Service</text>
</g>
<!-- md -->
<g id="node1" class="node">
<title>md</title>
<ellipse fill="none" stroke="black" cx="782.48" cy="-168" rx="64.88" ry="30.05"/>
<text text-anchor="middle" x="782.48" y="-171.95" font-family="Times,serif" font-size="14.00">Markdown</text>
<text text-anchor="middle" x="782.48" y="-154.7" font-family="Times,serif" font-size="14.00">File</text>
</g>
<!-- cache_check -->
<g id="node2" class="node">
<title>cache_check</title>
<ellipse fill="none" stroke="black" cx="328.31" cy="-209" rx="42.07" ry="30.05"/>
<text text-anchor="middle" x="328.31" y="-212.95" font-family="Times,serif" font-size="14.00">Cache</text>
<text text-anchor="middle" x="328.31" y="-195.7" font-family="Times,serif" font-size="14.00">Check</text>
</g>
<!-- html -->
<g id="node4" class="node">
<title>html</title>
<ellipse fill="none" stroke="black" cx="537.12" cy="-168" rx="57.98" ry="30.05"/>
<text text-anchor="middle" x="537.12" y="-171.95" font-family="Times,serif" font-size="14.00">Generate</text>
<text text-anchor="middle" x="537.12" y="-154.7" font-family="Times,serif" font-size="14.00">HTML</text>
</g>
<!-- cache_check&#45;&gt;html -->
<g id="edge3" class="edge">
<title>cache_check&#45;&gt;html</title>
<path fill="none" stroke="black" d="M369.18,-201.09C398.18,-195.35 438.07,-187.44 471.58,-180.79"/>
<polygon fill="black" stroke="black" points="472.06,-184.27 481.19,-178.89 470.7,-177.4 472.06,-184.27"/>
<text text-anchor="middle" x="420.26" y="-199.95" font-family="Times,serif" font-size="14.00">hit</text>
</g>
<!-- kroki -->
<g id="node6" class="node">
<title>kroki</title>
<ellipse fill="none" stroke="black" cx="537.12" cy="-34" rx="38.06" ry="18"/>
<text text-anchor="middle" x="537.12" y="-29.32" font-family="Times,serif" font-size="14.00">Kroki</text>
</g>
<!-- cache_check&#45;&gt;kroki -->
<g id="edge5" class="edge">
<title>cache_check&#45;&gt;kroki</title>
<path fill="none" stroke="black" d="M356.47,-186.71C361.58,-181.61 366.52,-175.93 370.38,-170 383.34,-150.13 373.07,-137.87 388.38,-119.75 409.36,-94.94 424.01,-100.25 452.13,-84 469.01,-74.25 487.64,-63.18 503.06,-53.95"/>
<polygon fill="black" stroke="black" points="504.61,-57.1 511.38,-48.95 501.01,-51.1 504.61,-57.1"/>
<text text-anchor="middle" x="420.26" y="-123.95" font-family="Times,serif" font-size="14.00">miss</text>
</g>
<!-- hash -->
<g id="node3" class="node">
<title>hash</title>
<ellipse fill="none" stroke="black" cx="180.65" cy="-209" rx="68.59" ry="30.05"/>
<text text-anchor="middle" x="180.65" y="-212.95" font-family="Times,serif" font-size="14.00">Codeblocks</text>
<text text-anchor="middle" x="180.65" y="-195.7" font-family="Times,serif" font-size="14.00">processing</text>
</g>
<!-- hash&#45;&gt;cache_check -->
<g id="edge2" class="edge">
<title>hash&#45;&gt;cache_check</title>
<path fill="none" stroke="black" d="M249.36,-209C257.85,-209 266.42,-209 274.63,-209"/>
<polygon fill="black" stroke="black" points="274.42,-212.5 284.42,-209 274.42,-205.5 274.42,-212.5"/>
</g>
<!-- html&#45;&gt;md -->
<g id="edge7" class="edge">
<title>html&#45;&gt;md</title>
<path fill="none" stroke="black" d="M595.48,-168C628.45,-168 670.26,-168 705.88,-168"/>
<polygon fill="black" stroke="black" points="705.7,-171.5 715.7,-168 705.7,-164.5 705.7,-171.5"/>
<text text-anchor="middle" x="650.35" y="-189.2" font-family="Times,serif" font-size="14.00">replace</text>
<text text-anchor="middle" x="650.35" y="-171.95" font-family="Times,serif" font-size="14.00">codeblock</text>
</g>
<!-- save -->
<g id="node5" class="node">
<title>save</title>
<ellipse fill="none" stroke="black" cx="328.31" cy="-131" rx="35.71" ry="30.05"/>
<text text-anchor="middle" x="328.31" y="-134.95" font-family="Times,serif" font-size="14.00">Save</text>
<text text-anchor="middle" x="328.31" y="-117.7" font-family="Times,serif" font-size="14.00">SVG</text>
</g>
<!-- save&#45;&gt;html -->
<g id="edge1" class="edge">
<title>save&#45;&gt;html</title>
<path fill="none" stroke="black" d="M363.46,-137.11C392.55,-142.31 435.17,-149.94 470.79,-156.31"/>
<polygon fill="black" stroke="black" points="470.13,-159.75 480.59,-158.07 471.36,-152.86 470.13,-159.75"/>
<text text-anchor="middle" x="420.26" y="-155.95" font-family="Times,serif" font-size="14.00">process</text>
</g>
<!-- kroki&#45;&gt;save -->
<g id="edge4" class="edge">
<title>kroki&#45;&gt;save</title>
<path fill="none" stroke="black" d="M499.58,-29.88C468.04,-28.1 422.32,-29.88 388.38,-49.5 370.97,-59.57 357.27,-77.06 347.47,-93.26"/>
<polygon fill="black" stroke="black" points="344.52,-91.37 342.62,-101.79 350.6,-94.83 344.52,-91.37"/>
<text text-anchor="middle" x="420.26" y="-71.2" font-family="Times,serif" font-size="14.00">generate</text>
<text text-anchor="middle" x="420.26" y="-53.95" font-family="Times,serif" font-size="14.00">SVG</text>
</g>
<!-- Build -->
<g id="node7" class="node">
<title>Build</title>
<ellipse fill="none" stroke="black" cx="37.53" cy="-209" rx="37.53" ry="18"/>
<text text-anchor="middle" x="37.53" y="-204.32" font-family="Times,serif" font-size="14.00">Build</text>
</g>
<!-- Build&#45;&gt;hash -->
<g id="edge6" class="edge">
<title>Build&#45;&gt;hash</title>
<path fill="none" stroke="black" d="M75.24,-209C83.02,-209 91.52,-209 100.2,-209"/>
<polygon fill="black" stroke="black" points="100.16,-212.5 110.16,-209 100.16,-205.5 100.16,-212.5"/>
</g>
</g>
</svg>
